<svg xmlns="http://www.w3.org/2000/svg" viewBox="0 0 1200 820" role="img" aria-labelledby="title desc">
  <title id="title">KODEX 200의 2024년 1월부터 3월까지 Close 선 그래프</title>
  <desc id="desc">FinanceDataReader의 NAVER 069500 경로에서 2026년 8월 27일 받은 61개 Close 값이다. 1월 17일 31248이 최저이고 3월 29일 36123이 최고다.</desc>
  <style>
    text{font-family:"Noto Sans CJK KR","Noto Sans KR",sans-serif;fill:#0F172A}
    .axis{font-size:19px;font-weight:400;fill:#52606D}
    .label{font-size:20px;font-weight:700;fill:#0F2C59}
    .value{font-size:20px;font-weight:700;fill:#0B7A6A}
    .grid{stroke:#C7D2E1;stroke-width:1}
  </style>
  <rect width="1200" height="820" fill="#FFFFFF"/>

  <line class="grid" x1="120" y1="130" x2="1120" y2="130"/>
  <line class="grid" x1="120" y1="320" x2="1120" y2="320"/>
  <line class="grid" x1="120" y1="510" x2="1120" y2="510"/>
  <line class="grid" x1="120" y1="700" x2="1120" y2="700"/>
  <line x1="120" y1="130" x2="120" y2="700" stroke="#0F172A" stroke-width="2"/>
  <line x1="120" y1="700" x2="1120" y2="700" stroke="#0F172A" stroke-width="2"/>

  <text class="axis" x="100" y="137" text-anchor="end">37,000</text>
  <text class="axis" x="100" y="327" text-anchor="end">35,000</text>
  <text class="axis" x="100" y="517" text-anchor="end">33,000</text>
  <text class="axis" x="100" y="707" text-anchor="end">31,000</text>
  <text class="label" x="120" y="96">Close</text>

  <line x1="120" y1="700" x2="120" y2="712" stroke="#0F172A" stroke-width="2"/>
  <line x1="486.7" y1="700" x2="486.7" y2="712" stroke="#0F172A" stroke-width="2"/>
  <line x1="803.3" y1="700" x2="803.3" y2="712" stroke="#0F172A" stroke-width="2"/>
  <line x1="1120" y1="700" x2="1120" y2="712" stroke="#0F172A" stroke-width="2"/>
  <text class="axis" x="120" y="744" text-anchor="middle">1/2</text>
  <text class="axis" x="486.7" y="744" text-anchor="middle">2/1</text>
  <text class="axis" x="803.3" y="744" text-anchor="middle">3/4</text>
  <text class="axis" x="1120" y="744" text-anchor="middle">3/29</text>
  <text class="axis" x="620" y="785" text-anchor="middle">2024년 거래일</text>

  <polyline
    points="120.0,363.6 136.7,454.6 153.3,482.7 170.0,491.6 186.7,502.0 203.3,513.6 220.0,547.9 236.7,543.0 253.3,572.7 270.0,559.9 286.7,601.9 303.3,676.4 320.0,662.7 336.7,617.9 353.3,614.8 370.0,598.8 386.7,610.7 403.3,607.0 420.0,601.4 436.7,565.6 453.3,570.9 470.0,585.9 486.7,533.3 503.3,433.0 520.0,472.0 536.7,484.0 553.3,439.3 570.0,435.7 586.7,396.5 603.3,440.6 620.0,445.1 636.7,413.1 653.3,362.5 670.0,400.9 686.7,408.1 703.3,391.5 720.0,381.5 736.7,407.6 753.3,435.3 770.0,396.0 786.7,404.6 803.3,357.9 820.0,384.2 836.7,396.0 853.3,393.7 870.0,346.1 886.7,373.8 903.3,345.6 920.0,330.4 936.7,300.4 953.3,363.4 970.0,342.4 986.7,381.9 1003.3,324.5 1020.0,234.5 1036.7,244.5 1053.3,257.9 1070.0,224.6 1086.7,222.7 1103.3,224.6 1120.0,213.3"
    fill="none" stroke="#0F2C59" stroke-width="5" stroke-linejoin="round" stroke-linecap="round"/>

  <circle cx="120" cy="363.6" r="7" fill="#0F2C59"/>
  <text class="label" x="139" y="350">34,541</text>

  <circle cx="303.3" cy="676.4" r="7" fill="#BE123C"/>
  <path d="M303.3 676.4H316V666H327" fill="none" stroke="#BE123C" stroke-width="2"/>
  <rect x="327" y="628" width="190" height="38" rx="19" fill="#FFFFFF" stroke="#BE123C"/>
  <text x="422" y="654" text-anchor="middle" font-size="19" font-weight="700" fill="#BE123C">1/17 · 31,248</text>

  <circle cx="1120" cy="213.3" r="7" fill="#0B7A6A"/>
  <path d="M1120 199V165H1016" fill="none" stroke="#0B7A6A" stroke-width="2"/>
  <text class="value" x="1006" y="160" text-anchor="end">3/29 · 36,123</text>

  <rect x="820" y="32" width="300" height="40" rx="20" fill="#E7EEF9" stroke="#C7D2E1"/>
  <line x1="842" y1="52" x2="884" y2="52" stroke="#0F2C59" stroke-width="5" stroke-linecap="round"/>
  <text x="900" y="59" font-size="18" font-weight="400" fill="#52606D">FinanceDataReader Close</text>
</svg>
