<svg style="font-family: Noto Sans CJK KR, sans-serif" class="teaching-board" viewBox="0 0 1730 670" xmlns="http://www.w3.org/2000/svg" role="img" aria-label="starter"><g data-beat="1" data-arrival="rise"><rect x="25" y="80" width="475" height="360" rx="22" fill="#fff" stroke="#c5d3da" stroke-width="3"/><path d="M425,80 L425,145 L500,145" fill="none" stroke="#c5d3da" stroke-width="3" stroke-linecap="round" stroke-linejoin="round" /><text x="57" y="156" font-size="39" fill="#102e57" text-anchor="start" font-weight="700">시작 묶음 ZIP</text><text x="57" y="225" font-size="32" fill="#536474" text-anchor="start" font-weight="400">요청문 · 연습 입력</text><text x="57" y="282" font-size="32" fill="#536474" text-anchor="start" font-weight="400">실습 시작 안내</text></g><g data-ink="2" data-arrow="true"><path d="M500,260 L620,260" fill="none" stroke="#086c70" stroke-width="5" stroke-linecap="round" stroke-linejoin="round" /><path d="M601.0,249.0 L620,260 L601.0,271.0" fill="none" stroke="#086c70" stroke-width="5" stroke-linecap="round" stroke-linejoin="round" /></g><g data-beat="2" data-arrival="rise"><rect x="620" y="80" width="475" height="360" rx="22" fill="#f3f7fa" stroke="#c5d3da" stroke-width="3"/><text x="650" y="142" font-size="40" fill="#102e57" text-anchor="start" font-weight="700">실습 폴더</text><text x="650" y="200" font-size="32" fill="#536474" text-anchor="start" font-weight="400">만들기-요청.txt</text><text x="650" y="252" font-size="32" fill="#536474" text-anchor="start" font-weight="400">data/</text><text x="650" y="304" font-size="32" fill="#536474" text-anchor="start" font-weight="400">README.md</text></g><g data-ink="3" data-arrow="true"><path d="M1095,260 L1215,260" fill="none" stroke="#086c70" stroke-width="5" stroke-linecap="round" stroke-linejoin="round" /><path d="M1196.0,249.0 L1215,260 L1196.0,271.0" fill="none" stroke="#086c70" stroke-width="5" stroke-linecap="round" stroke-linejoin="round" /></g><g data-beat="3" data-arrival="rise"><rect x="1215" y="80" width="475" height="360" rx="22" fill="#fff" stroke="#c5d3da" stroke-width="3"/><path d="M1615,80 L1615,145 L1690,145" fill="none" stroke="#c5d3da" stroke-width="3" stroke-linecap="round" stroke-linejoin="round" /><text x="1247" y="156" font-size="39" fill="#102e57" text-anchor="start" font-weight="700">새 노트북</text><text x="1247" y="225" font-size="32" fill="#536474" text-anchor="start" font-weight="400">코딩 에이전트가</text><text x="1247" y="282" font-size="32" fill="#536474" text-anchor="start" font-weight="400">만드는 파일</text></g><g data-ink="4"><path d="M650,366 Q855,378 1065,366" fill="none" stroke="#b45309" stroke-width="6" stroke-linecap="round" stroke-linejoin="round" /></g><g data-beat="4" data-arrival="rise"><rect x="660" y="510" width="605" height="60" rx="30" fill="#e4f2ee" stroke="#086c70" stroke-width="3"/><text x="962.5" y="552" font-size="30" fill="#086c70" text-anchor="middle" font-weight="700">배치가 헷갈리면 시작 안내</text></g></svg>